<svg xmlns="http://www.w3.org/2000/svg" viewBox="0 0 512 512" role="img" aria-label="The Stream Den logo">
  <defs>
    <linearGradient id="glow" x1="0%" y1="0%" x2="100%" y2="0%">
      <stop offset="0%" stop-color="#6ae0ff" />
      <stop offset="100%" stop-color="#2f9bff" />
    </linearGradient>
    <filter id="shadow" x="-30%" y="-30%" width="160%" height="160%">
      <feDropShadow dx="0" dy="8" stdDeviation="16" flood-color="#0a1a2f" flood-opacity="0.8" />
    </filter>
  </defs>
  <rect width="512" height="512" fill="#0a101d" rx="30" />
  <circle cx="256" cy="256" r="210" fill="#0d172a" />
  <path d="M148 214c0-38 35-60 108-60s108 22 108 60v84c0 38-35 60-108 60s-108-22-108-60Z" fill="none" stroke="url(#glow)" stroke-width="22" stroke-linecap="round" stroke-linejoin="round" filter="url(#shadow)" />
  <path d="M200 210c0-24 22-38 56-38s56 14 56 38v92c0 24-22 38-56 38s-56-14-56-38Z" fill="none" stroke="url(#glow)" stroke-width="18" stroke-linecap="round" stroke-linejoin="round" opacity="0.7" />
  <polygon points="238,244 238,308 296,276" fill="url(#glow)" filter="url(#shadow)" />
  <text x="256" y="392" text-anchor="middle" fill="#7ad1ff" font-family="Inter, 'Segoe UI', sans-serif" font-size="56" font-weight="700" letter-spacing="0.02em">TheStreamDen</text>
</svg>
